<?xml version="1.0" ?><!DOCTYPE svg  PUBLIC '-//W3C//DTD SVG 1.1//EN'  'http://www.w3.org/Graphics/SVG/1.1/DTD/svg11.dtd'><svg id="Lager_1" style="enable-background:new -265 388.9 64 64;" version="1.1" viewBox="-265 388.9 64 64" xml:space="preserve" xmlns="http://www.w3.org/2000/svg" xmlns:xlink="http://www.w3.org/1999/xlink"><path d="M-209,443.3v-44.8c0-0.9-0.7-1.6-1.6-1.6h-44.8c-0.9,0-1.6,0.7-1.6,1.6v44.8c0,0.9,0.7,1.6,1.6,1.6h44.8  C-209.7,444.9-209,444.2-209,443.3z M-237,409.3c0.1-0.3,0.4-0.4,0.8-0.4h6.8c0.6,0,1.1,0.6,0.8,1.1l-6,7.4h14.3  c0.5,0,0.9,0.3,0.9,0.8v6c0,0.4-0.4,0.8-0.9,0.8h-14.1l5.7,6.9c0.3,0.5-0.1,1.1-0.8,1.1h-6.8c-0.3,0-0.6-0.2-0.8-0.4l-9.3-11.7  L-237,409.3z"/></svg>