{
	"asset":{
		"generator":"Khronos glTF Blender I/O v3.6.27",
		"version":"2.0"
	},
	"extensionsUsed":[
		"KHR_materials_unlit"
	],
	"scene":0,
	"scenes":[
		{
			"name":"Scene",
			"nodes":[
				6
			]
		}
	],
	"nodes":[
		{
			"mesh":0,
			"name":"Object_2"
		},
		{
			"mesh":1,
			"name":"Object_3"
		},
		{
			"mesh":2,
			"name":"Object_4"
		},
		{
			"mesh":3,
			"name":"Object_5"
		},
		{
			"mesh":4,
			"name":"Object_6"
		},
		{
			"children":[
				0,
				1,
				2,
				3,
				4
			],
			"name":"model.obj.cleaner.materialmerger.gles"
		},
		{
			"children":[
				5
			],
			"name":"Sketchfab_model",
			"rotation":[
				-0.5606632232666016,
				-0.0008255753782577813,
				0.08618912100791931,
				0.8235458135604858
			],
			"scale":[
				0.5,
				0.5000000596046448,
				0.5000000596046448
			],
			"translation":[
				-4.2173614501953125,
				-0.011166097596287727,
				0.5101450681686401
			]
		}
	],
	"materials":[
		{
			"doubleSided":true,
			"extensions":{
				"KHR_materials_unlit":{}
			},
			"name":"model",
			"pbrMetallicRoughness":{
				"baseColorTexture":{
					"index":0,
					"texCoord":0
				},
				"metallicFactor":0,
				"roughnessFactor":0.9
			}
		}
	],
	"meshes":[
		{
			"name":"Object_0",
			"primitives":[
				{
					"attributes":{
						"POSITION":0,
						"NORMAL":1,
						"TEXCOORD_0":2
					},
					"indices":3,
					"material":0
				}
			]
		},
		{
			"name":"Object_1",
			"primitives":[
				{
					"attributes":{
						"POSITION":4,
						"NORMAL":5,
						"TEXCOORD_0":6
					},
					"indices":7,
					"material":0
				}
			]
		},
		{
			"name":"Object_2",
			"primitives":[
				{
					"attributes":{
						"POSITION":8,
						"NORMAL":9,
						"TEXCOORD_0":10
					},
					"indices":11,
					"material":0
				}
			]
		},
		{
			"name":"Object_3",
			"primitives":[
				{
					"attributes":{
						"POSITION":12,
						"NORMAL":13,
						"TEXCOORD_0":14
					},
					"indices":15,
					"material":0
				}
			]
		},
		{
			"name":"Object_4",
			"primitives":[
				{
					"attributes":{
						"POSITION":16,
						"NORMAL":17,
						"TEXCOORD_0":18
					},
					"indices":19,
					"material":0
				}
			]
		}
	],
	"textures":[
		{
			"sampler":0,
			"source":0
		}
	],
	"images":[
		{
			"mimeType":"image/jpeg",
			"name":"Image_0",
			"uri":"Image_0.jpg"
		}
	],
	"accessors":[
		{
			"bufferView":0,
			"componentType":5126,
			"count":66039,
			"max":[
				9.946983337402344,
				7.258887767791748,
				-2.28171706199646
			],
			"min":[
				-7.467773914337158,
				3.26045298576355,
				-3.4592909812927246
			],
			"type":"VEC3"
		},
		{
			"bufferView":1,
			"componentType":5126,
			"count":66039,
			"type":"VEC3"
		},
		{
			"bufferView":2,
			"componentType":5126,
			"count":66039,
			"type":"VEC2"
		},
		{
			"bufferView":3,
			"componentType":5125,
			"count":247314,
			"type":"SCALAR"
		},
		{
			"bufferView":4,
			"componentType":5126,
			"count":65971,
			"max":[
				9.856863975524902,
				6.849110126495361,
				-2.787398099899292
			],
			"min":[
				-7.453595161437988,
				1.7020950317382812,
				-5.19436502456665
			],
			"type":"VEC3"
		},
		{
			"bufferView":5,
			"componentType":5126,
			"count":65971,
			"type":"VEC3"
		},
		{
			"bufferView":6,
			"componentType":5126,
			"count":65971,
			"type":"VEC2"
		},
		{
			"bufferView":7,
			"componentType":5125,
			"count":258135,
			"type":"SCALAR"
		},
		{
			"bufferView":8,
			"componentType":5126,
			"count":65879,
			"max":[
				9.838662147521973,
				6.637073040008545,
				-4.2633562088012695
			],
			"min":[
				-7.851533889770508,
				1.202543020248413,
				-5.269421100616455
			],
			"type":"VEC3"
		},
		{
			"bufferView":9,
			"componentType":5126,
			"count":65879,
			"type":"VEC3"
		},
		{
			"bufferView":10,
			"componentType":5126,
			"count":65879,
			"type":"VEC2"
		},
		{
			"bufferView":11,
			"componentType":5125,
			"count":266856,
			"type":"SCALAR"
		},
		{
			"bufferView":12,
			"componentType":5126,
			"count":66083,
			"max":[
				9.851984977722168,
				6.810060977935791,
				-2.3226070404052734
			],
			"min":[
				-7.744133949279785,
				1.177495002746582,
				-5.260406970977783
			],
			"type":"VEC3"
		},
		{
			"bufferView":13,
			"componentType":5126,
			"count":66083,
			"type":"VEC3"
		},
		{
			"bufferView":14,
			"componentType":5126,
			"count":66083,
			"type":"VEC2"
		},
		{
			"bufferView":15,
			"componentType":5125,
			"count":225273,
			"type":"SCALAR"
		},
		{
			"bufferView":16,
			"componentType":5126,
			"count":46687,
			"max":[
				9.870650291442871,
				6.906536102294922,
				-3.353537082672119
			],
			"min":[
				-7.48824405670166,
				3.020308017730713,
				-4.413924217224121
			],
			"type":"VEC3"
		},
		{
			"bufferView":17,
			"componentType":5126,
			"count":46687,
			"type":"VEC3"
		},
		{
			"bufferView":18,
			"componentType":5126,
			"count":46687,
			"type":"VEC2"
		},
		{
			"bufferView":19,
			"componentType":5123,
			"count":171237,
			"type":"SCALAR"
		}
	],
	"bufferViews":[
		{
			"buffer":0,
			"byteLength":792468,
			"byteOffset":0,
			"target":34962
		},
		{
			"buffer":0,
			"byteLength":792468,
			"byteOffset":792468,
			"target":34962
		},
		{
			"buffer":0,
			"byteLength":528312,
			"byteOffset":1584936,
			"target":34962
		},
		{
			"buffer":0,
			"byteLength":989256,
			"byteOffset":2113248,
			"target":34963
		},
		{
			"buffer":0,
			"byteLength":791652,
			"byteOffset":3102504,
			"target":34962
		},
		{
			"buffer":0,
			"byteLength":791652,
			"byteOffset":3894156,
			"target":34962
		},
		{
			"buffer":0,
			"byteLength":527768,
			"byteOffset":4685808,
			"target":34962
		},
		{
			"buffer":0,
			"byteLength":1032540,
			"byteOffset":5213576,
			"target":34963
		},
		{
			"buffer":0,
			"byteLength":790548,
			"byteOffset":6246116,
			"target":34962
		},
		{
			"buffer":0,
			"byteLength":790548,
			"byteOffset":7036664,
			"target":34962
		},
		{
			"buffer":0,
			"byteLength":527032,
			"byteOffset":7827212,
			"target":34962
		},
		{
			"buffer":0,
			"byteLength":1067424,
			"byteOffset":8354244,
			"target":34963
		},
		{
			"buffer":0,
			"byteLength":792996,
			"byteOffset":9421668,
			"target":34962
		},
		{
			"buffer":0,
			"byteLength":792996,
			"byteOffset":10214664,
			"target":34962
		},
		{
			"buffer":0,
			"byteLength":528664,
			"byteOffset":11007660,
			"target":34962
		},
		{
			"buffer":0,
			"byteLength":901092,
			"byteOffset":11536324,
			"target":34963
		},
		{
			"buffer":0,
			"byteLength":560244,
			"byteOffset":12437416,
			"target":34962
		},
		{
			"buffer":0,
			"byteLength":560244,
			"byteOffset":12997660,
			"target":34962
		},
		{
			"buffer":0,
			"byteLength":373496,
			"byteOffset":13557904,
			"target":34962
		},
		{
			"buffer":0,
			"byteLength":342474,
			"byteOffset":13931400,
			"target":34963
		}
	],
	"samplers":[
		{
			"magFilter":9729,
			"minFilter":9987
		}
	],
	"buffers":[
		{
			"byteLength":14273876,
			"uri":"muro_solo.bin"
		}
	]
}
